# xmcd CD database file
#
# Track frame offsets:
#	150
#	10396
#	25939
#	38400
#	52500
#	64551
#	84400
#	96246
#	114801
#	126327
#	139836
#	149118
#	164115
#	176575
#	187341
#	200282
#	213040
#	229091
#	245941
#	259150
#	279943
#	304643
#	329542
#
# Disc length: 4610 seconds
#
# Revision: 1
# Processed by: cddbd v1.5.2PL0 Copyright (c) Steve Scherf et al.
# Submitted via: CDex 1.51
#
DISCID=4b120017
DTITLE=Various Artist - ZM-TPMH-Disc-6
DYEAR=1900
DGENRE=Blues
TTITLE0=Tom Jones - It's Not Unusual
TTITLE1=Elvis Presley - It's Now Or Never
TTITLE2=Roy Orbison - It's Over
TTITLE3=Billy Joel - It's Still Rock And Roll To Me
TTITLE4=Elvis Presley - Jailhouse Rock
TTITLE5=Billy Joel - Just The way You Are
TTITLE6=Neil Diamond - Kentucky Woman
TTITLE7=Elton John - Kiss The Bride
TTITLE8=Roy Orbison - Lana
TTITLE9=Cliff Richard - Lessons In Love
TTITLE10=Elvis Presley - Teddy Bear (let me be your)
TTITLE11=Tom Jones - Letter To Lucille
TTITLE12=Elvis Presley - Little Sister
TTITLE13=Cliff Richard - Livin' Lovin' Doll
TTITLE14=Cliff Richard - Living Doll
TTITLE15=Elvis Presley - Love Me Tender
TTITLE16=Tom Jones - Love Me Tonight
TTITLE17=Neil Diamond - Love On The Rocks
TTITLE18=Cliff Richard - Lucky Lips
TTITLE19=Elton John - Made In England
TTITLE20=Rod Stewart - Maggie May
TTITLE21=Michael Jackson - Man In The Mirror
TTITLE22=Barry Manilow - Mandy
EXTD=
EXTT0=
EXTT1=
EXTT2=
EXTT3=
EXTT4=
EXTT5=
EXTT6=
EXTT7=
EXTT8=
EXTT9=
EXTT10=
EXTT11=
EXTT12=
EXTT13=
EXTT14=
EXTT15=
EXTT16=
EXTT17=
EXTT18=
EXTT19=
EXTT20=
EXTT21=
EXTT22=
PLAYORDER=
